<svg width="1000" height="200" viewBox="0 0 1000 200" fill="none" xmlns="http://www.w3.org/2000/svg">
<rect width="1000" height="200" fill="#F5F5F5"/>
<rect width="1000" height="200" fill="white"/>
<rect width="1000" height="200" fill="white"/>
<path d="M55.4205 144L31.5568 56.7273H42.2955L60.5341 127.807H61.3864L79.9659 56.7273H91.8977L110.477 127.807H111.33L129.568 56.7273H140.307L116.443 144H105.534L86.2727 74.4545H85.5909L66.3295 144H55.4205ZM172.608 145.364C166.699 145.364 161.514 143.957 157.054 141.145C152.622 138.332 149.156 134.398 146.656 129.341C144.185 124.284 142.949 118.375 142.949 111.614C142.949 104.795 144.185 98.8437 146.656 93.7585C149.156 88.6733 152.622 84.7244 157.054 81.9119C161.514 79.0994 166.699 77.6932 172.608 77.6932C178.517 77.6932 183.688 79.0994 188.119 81.9119C192.58 84.7244 196.045 88.6733 198.517 93.7585C201.017 98.8437 202.267 104.795 202.267 111.614C202.267 118.375 201.017 124.284 198.517 129.341C196.045 134.398 192.58 138.332 188.119 141.145C183.688 143.957 178.517 145.364 172.608 145.364ZM172.608 136.33C177.097 136.33 180.79 135.179 183.688 132.878C186.585 130.577 188.73 127.551 190.122 123.801C191.514 120.051 192.21 115.989 192.21 111.614C192.21 107.239 191.514 103.162 190.122 99.3835C188.73 95.6051 186.585 92.5511 183.688 90.2216C180.79 87.892 177.097 86.7273 172.608 86.7273C168.119 86.7273 164.426 87.892 161.528 90.2216C158.631 92.5511 156.486 95.6051 155.094 99.3835C153.702 103.162 153.006 107.239 153.006 111.614C153.006 115.989 153.702 120.051 155.094 123.801C156.486 127.551 158.631 130.577 161.528 132.878C164.426 135.179 168.119 136.33 172.608 136.33ZM244.21 145.364C238.3 145.364 233.116 143.957 228.656 141.145C224.224 138.332 220.758 134.398 218.258 129.341C215.786 124.284 214.55 118.375 214.55 111.614C214.55 104.795 215.786 98.8437 218.258 93.7585C220.758 88.6733 224.224 84.7244 228.656 81.9119C233.116 79.0994 238.3 77.6932 244.21 77.6932C250.119 77.6932 255.289 79.0994 259.721 81.9119C264.181 84.7244 267.647 88.6733 270.119 93.7585C272.619 98.8437 273.869 104.795 273.869 111.614C273.869 118.375 272.619 124.284 270.119 129.341C267.647 134.398 264.181 138.332 259.721 141.145C255.289 143.957 250.119 145.364 244.21 145.364ZM244.21 136.33C248.698 136.33 252.391 135.179 255.289 132.878C258.187 130.577 260.332 127.551 261.724 123.801C263.116 120.051 263.812 115.989 263.812 111.614C263.812 107.239 263.116 103.162 261.724 99.3835C260.332 95.6051 258.187 92.5511 255.289 90.2216C252.391 87.892 248.698 86.7273 244.21 86.7273C239.721 86.7273 236.028 87.892 233.13 90.2216C230.232 92.5511 228.087 95.6051 226.695 99.3835C225.303 103.162 224.607 107.239 224.607 111.614C224.607 115.989 225.303 120.051 226.695 123.801C228.087 127.551 230.232 130.577 233.13 132.878C236.028 135.179 239.721 136.33 244.21 136.33ZM313.936 145.364C308.482 145.364 303.666 143.986 299.49 141.23C295.314 138.446 292.047 134.526 289.689 129.469C287.331 124.384 286.152 118.375 286.152 111.443C286.152 104.568 287.331 98.6023 289.689 93.5455C292.047 88.4886 295.328 84.5824 299.533 81.8267C303.737 79.071 308.595 77.6932 314.107 77.6932C318.368 77.6932 321.734 78.4034 324.206 79.8239C326.706 81.2159 328.609 82.8068 329.916 84.5966C331.251 86.358 332.288 87.8068 333.027 88.9432H333.879V56.7273H343.936V144H334.22V133.943H333.027C332.288 135.136 331.237 136.642 329.874 138.46C328.51 140.25 326.564 141.855 324.036 143.276C321.507 144.668 318.141 145.364 313.936 145.364ZM315.3 136.33C319.334 136.33 322.743 135.278 325.527 133.176C328.311 131.045 330.428 128.105 331.876 124.355C333.325 120.577 334.05 116.216 334.05 111.273C334.05 106.386 333.339 102.111 331.919 98.446C330.499 94.7528 328.396 91.8835 325.612 89.8381C322.828 87.7642 319.391 86.7273 315.3 86.7273C311.038 86.7273 307.487 87.821 304.646 90.0085C301.834 92.1676 299.717 95.108 298.297 98.8295C296.905 102.523 296.209 106.67 296.209 111.273C296.209 115.932 296.919 120.165 298.339 123.972C299.788 127.75 301.919 130.761 304.732 133.006C307.572 135.222 311.095 136.33 315.3 136.33ZM391.195 145.364C384.888 145.364 379.447 143.972 374.874 141.188C370.328 138.375 366.82 134.455 364.348 129.426C361.905 124.369 360.683 118.489 360.683 111.784C360.683 105.08 361.905 99.1705 364.348 94.0568C366.82 88.9148 370.257 84.9091 374.661 82.0398C379.092 79.142 384.263 77.6932 390.172 77.6932C393.581 77.6932 396.947 78.2614 400.271 79.3977C403.595 80.5341 406.621 82.3807 409.348 84.9375C412.075 87.4659 414.249 90.8182 415.868 94.9943C417.487 99.1705 418.297 104.312 418.297 110.42V114.682H367.842V105.989H408.07C408.07 102.295 407.331 99 405.854 96.1023C404.405 93.2045 402.331 90.9176 399.632 89.2415C396.962 87.5653 393.808 86.7273 390.172 86.7273C386.166 86.7273 382.7 87.7216 379.774 89.7102C376.876 91.6705 374.646 94.2273 373.084 97.3807C371.521 100.534 370.74 103.915 370.74 107.523V113.318C370.74 118.261 371.592 122.452 373.297 125.889C375.03 129.298 377.43 131.898 380.499 133.688C383.567 135.449 387.132 136.33 391.195 136.33C393.837 136.33 396.223 135.96 398.354 135.222C400.513 134.455 402.374 133.318 403.936 131.812C405.499 130.278 406.706 128.375 407.558 126.102L417.274 128.83C416.251 132.125 414.533 135.023 412.118 137.523C409.703 139.994 406.72 141.926 403.169 143.318C399.618 144.682 395.626 145.364 391.195 145.364ZM443.652 104.625V144H433.595V78.5455H443.311V88.7727H444.163C445.697 85.4489 448.027 82.7784 451.152 80.7614C454.277 78.7159 458.311 77.6932 463.254 77.6932C467.686 77.6932 471.564 78.6023 474.888 80.4205C478.212 82.2102 480.797 84.9375 482.643 88.6023C484.49 92.2386 485.413 96.8409 485.413 102.409V144H475.357V103.091C475.357 97.9489 474.021 93.9432 471.351 91.0739C468.68 88.1761 465.016 86.7273 460.357 86.7273C457.146 86.7273 454.277 87.4233 451.749 88.8153C449.249 90.2074 447.274 92.2386 445.825 94.9091C444.376 97.5795 443.652 100.818 443.652 104.625ZM572.313 56.7273H582.881V119.114C582.881 124.682 581.859 129.412 579.813 133.304C577.768 137.196 574.884 140.151 571.163 142.168C567.441 144.185 563.052 145.193 557.995 145.193C553.222 145.193 548.975 144.327 545.254 142.594C541.532 140.832 538.606 138.332 536.475 135.094C534.344 131.855 533.279 128.006 533.279 123.545H543.677C543.677 126.017 544.288 128.176 545.509 130.023C546.759 131.841 548.464 133.261 550.623 134.284C552.782 135.307 555.239 135.818 557.995 135.818C561.035 135.818 563.62 135.179 565.751 133.901C567.881 132.622 569.501 130.747 570.609 128.276C571.745 125.776 572.313 122.722 572.313 119.114V56.7273ZM630.14 145.364C623.833 145.364 618.393 143.972 613.819 141.188C609.273 138.375 605.765 134.455 603.293 129.426C600.85 124.369 599.629 118.489 599.629 111.784C599.629 105.08 600.85 99.1705 603.293 94.0568C605.765 88.9148 609.202 84.9091 613.606 82.0398C618.038 79.142 623.208 77.6932 629.117 77.6932C632.526 77.6932 635.893 78.2614 639.217 79.3977C642.54 80.5341 645.566 82.3807 648.293 84.9375C651.021 87.4659 653.194 90.8182 654.813 94.9943C656.433 99.1705 657.242 104.312 657.242 110.42V114.682H606.788V105.989H647.015C647.015 102.295 646.276 99 644.799 96.1023C643.35 93.2045 641.276 90.9176 638.577 89.2415C635.907 87.5653 632.754 86.7273 629.117 86.7273C625.112 86.7273 621.646 87.7216 618.719 89.7102C615.822 91.6705 613.592 94.2273 612.029 97.3807C610.467 100.534 609.685 103.915 609.685 107.523V113.318C609.685 118.261 610.538 122.452 612.242 125.889C613.975 129.298 616.376 131.898 619.444 133.688C622.512 135.449 626.077 136.33 630.14 136.33C632.782 136.33 635.168 135.96 637.299 135.222C639.458 134.455 641.319 133.318 642.881 131.812C644.444 130.278 645.651 128.375 646.504 126.102L656.219 128.83C655.197 132.125 653.478 135.023 651.063 137.523C648.648 139.994 645.665 141.926 642.114 143.318C638.563 144.682 634.572 145.364 630.14 145.364ZM687.37 144L667.427 78.5455H677.995L692.143 128.659H692.825L706.802 78.5455H717.54L731.347 128.489H732.029L746.177 78.5455H756.745L736.802 144H726.915L712.597 93.7159H711.575L697.256 144H687.37ZM795.257 145.364C788.95 145.364 783.51 143.972 778.936 141.188C774.391 138.375 770.882 134.455 768.411 129.426C765.967 124.369 764.746 118.489 764.746 111.784C764.746 105.08 765.967 99.1705 768.411 94.0568C770.882 88.9148 774.32 84.9091 778.723 82.0398C783.155 79.142 788.325 77.6932 794.234 77.6932C797.643 77.6932 801.01 78.2614 804.334 79.3977C807.658 80.5341 810.683 82.3807 813.411 84.9375C816.138 87.4659 818.311 90.8182 819.93 94.9943C821.55 99.1705 822.359 104.312 822.359 110.42V114.682H771.905V105.989H812.132C812.132 102.295 811.393 99 809.916 96.1023C808.467 93.2045 806.393 90.9176 803.695 89.2415C801.024 87.5653 797.871 86.7273 794.234 86.7273C790.229 86.7273 786.763 87.7216 783.837 89.7102C780.939 91.6705 778.709 94.2273 777.146 97.3807C775.584 100.534 774.803 103.915 774.803 107.523V113.318C774.803 118.261 775.655 122.452 777.359 125.889C779.092 129.298 781.493 131.898 784.561 133.688C787.629 135.449 791.195 136.33 795.257 136.33C797.899 136.33 800.286 135.96 802.416 135.222C804.575 134.455 806.436 133.318 807.999 131.812C809.561 130.278 810.768 128.375 811.621 126.102L821.337 128.83C820.314 132.125 818.595 135.023 816.18 137.523C813.766 139.994 810.783 141.926 807.232 143.318C803.68 144.682 799.689 145.364 795.257 145.364ZM847.714 56.7273V144H837.658V56.7273H847.714ZM866.134 144V78.5455H875.85V88.4318H876.532C877.725 85.1932 879.884 82.5653 883.009 80.5483C886.134 78.5312 889.657 77.5227 893.577 77.5227C894.316 77.5227 895.239 77.5369 896.347 77.5653C897.455 77.5937 898.293 77.6364 898.862 77.6932V87.9205C898.521 87.8352 897.739 87.7074 896.518 87.5369C895.325 87.3381 894.06 87.2386 892.725 87.2386C889.543 87.2386 886.702 87.9062 884.202 89.2415C881.731 90.5483 879.771 92.3665 878.322 94.696C876.901 96.9972 876.191 99.625 876.191 102.58V144H866.134ZM919.252 168.545C917.548 168.545 916.028 168.403 914.692 168.119C913.357 167.864 912.434 167.608 911.923 167.352L914.479 158.489C916.923 159.114 919.082 159.341 920.957 159.17C922.832 159 924.494 158.162 925.942 156.656C927.42 155.179 928.769 152.778 929.991 149.455L931.866 144.341L907.661 78.5455H918.57L936.638 130.705H937.32L955.388 78.5455H966.298L938.513 153.545C937.263 156.926 935.715 159.724 933.869 161.94C932.022 164.185 929.877 165.847 927.434 166.926C925.019 168.006 922.292 168.545 919.252 168.545Z" fill="black"/>
</svg>
